<svg xmlns="http://www.w3.org/2000/svg" xmlns:xlink="http://www.w3.org/1999/xlink" width="500" zoomAndPan="magnify" viewBox="0 0 375 374.999991" height="500" preserveAspectRatio="xMidYMid meet" version="1.0"><defs><g/></defs><rect x="-37.5" width="450" fill="#ffffff" y="-37.499999" height="449.999989" fill-opacity="1"/><rect x="-37.5" width="450" fill="#ffffff" y="-37.499999" height="449.999989" fill-opacity="1"/><rect x="-37.5" width="450" fill="#ffffff" y="-37.499999" height="449.999989" fill-opacity="1"/><rect x="-37.5" width="450" fill="#ffffff" y="-37.499999" height="449.999989" fill-opacity="1"/><g fill="#ede3df" fill-opacity="1"><g transform="translate(67.684962, 251.46582)"><g><path d="M 5.25 0 L 5.25 -1.875 L 12.203125 -1.875 C 16.078125 -1.875 18.703125 -2.75 20.078125 -4.5 C 21.453125 -6.25 22.140625 -10.066406 22.140625 -15.953125 L 22.140625 -118.03125 C 22.140625 -123.90625 21.515625 -127.71875 20.265625 -129.46875 C 19.015625 -131.21875 16.703125 -132.09375 13.328125 -132.09375 L 5.25 -132.09375 L 5.25 -133.96875 L 37.53125 -133.96875 L 71.296875 -15.015625 L 103.765625 -133.96875 L 134.53125 -133.96875 L 134.53125 -132.09375 L 129.09375 -132.09375 C 125.84375 -132.09375 123.625 -131.21875 122.4375 -129.46875 C 121.25 -127.71875 120.65625 -124.03125 120.65625 -118.40625 L 120.65625 -15.578125 C 120.65625 -9.941406 121.21875 -6.25 122.34375 -4.5 C 123.46875 -2.75 125.96875 -1.875 129.84375 -1.875 L 134.53125 -1.875 L 134.53125 0 L 91.375 0 L 91.375 -1.875 L 94.390625 -1.875 C 98.515625 -1.875 101.171875 -2.78125 102.359375 -4.59375 C 103.546875 -6.40625 104.140625 -10.378906 104.140625 -16.515625 L 104.140625 -128.15625 L 69.421875 0 L 60.421875 0 L 24.015625 -126.46875 L 24.015625 -16.328125 C 24.015625 -9.941406 24.765625 -5.9375 26.265625 -4.3125 C 27.765625 -2.6875 30.707031 -1.875 35.09375 -1.875 L 41.28125 -1.875 L 41.28125 0 Z M 5.25 0 "/></g></g></g><g fill="#ede3df" fill-opacity="1"><g transform="translate(213.857005, 251.46582)"><g><path d="M 5.25 0 L 5.25 -1.875 L 9.1875 -1.875 C 13.070312 -1.875 15.734375 -2.71875 17.171875 -4.40625 C 18.609375 -6.09375 19.328125 -10.128906 19.328125 -16.515625 L 19.328125 -117.46875 C 19.328125 -123.84375 18.609375 -127.875 17.171875 -129.5625 C 15.734375 -131.25 13.070312 -132.09375 9.1875 -132.09375 L 5.25 -132.09375 L 5.25 -133.96875 L 50.46875 -133.96875 L 50.46875 -132.09375 L 46.15625 -132.09375 C 42.28125 -132.09375 39.625 -131.28125 38.1875 -129.65625 C 36.75 -128.03125 36.03125 -124.09375 36.03125 -117.84375 L 36.03125 -1.875 L 64.359375 -1.875 C 71.992188 -1.875 77.28125 -3.34375 80.21875 -6.28125 C 83.15625 -9.226562 84.8125 -14.515625 85.1875 -22.140625 L 85.9375 -39.96875 L 87.8125 -39.96875 L 86.6875 0 Z M 5.25 0 "/></g></g></g><path stroke-linecap="round" transform="matrix(0.902924, 0, 0, 0.902473, 60.762147, 140.700855)" fill="none" stroke-linejoin="miter" d="M 0.501367 -0.00181281 L 280.368905 -0.00181281 " stroke="#000000" stroke-width="1" stroke-opacity="1" stroke-miterlimit="4"/><path stroke-linecap="round" transform="matrix(0.906113, 0, 0, 0.902473, 60.762147, 228.619893)" fill="none" stroke-linejoin="miter" d="M 0.499603 0.00133053 L 69.225504 0.00133053 " stroke="#000000" stroke-width="1" stroke-opacity="1" stroke-miterlimit="4"/><path stroke-linecap="round" transform="matrix(0.906113, 0, 0, 0.902473, 251.313533, 228.619893)" fill="none" stroke-linejoin="miter" d="M 0.498936 0.00133053 L 69.224837 0.00133053 " stroke="#000000" stroke-width="1" stroke-opacity="1" stroke-miterlimit="4"/><path stroke-linecap="round" transform="matrix(0.000000000000000055, -0.905649, 0.902473, 0.000000000000000055, 314.682785, 228.83921)" fill="none" stroke-linejoin="miter" d="M 0.499632 0.000895666 L 97.171473 0.000895666 " stroke="#000000" stroke-width="1" stroke-opacity="1" stroke-miterlimit="4"/><path stroke-linecap="round" transform="matrix(0.000000000000000055, -0.905649, 0.902473, 0.000000000000000055, 60.304625, 228.83921)" fill="none" stroke-linejoin="miter" d="M 0.499632 0.0000688774 L 97.171473 0.0000688774 " stroke="#000000" stroke-width="1" stroke-opacity="1" stroke-miterlimit="4"/><g fill="#000000" fill-opacity="1"><g transform="translate(114.576413, 195.681215)"><g><path d="M 0.878906 9.976562 C 1.476562 10.4375 2.171875 10.714844 2.957031 10.851562 C 4.527344 11.222656 6.140625 11.128906 7.757812 10.851562 C 13.390625 9.882812 18.65625 7.757812 23.691406 5.125 C 24.105469 4.941406 24.523438 4.757812 24.984375 4.757812 C 28.726562 4.527344 32.328125 3.601562 35.835938 2.355469 C 39.761719 0.96875 43.316406 -1.0625 46.320312 -4.109375 C 48.074219 -5.910156 49.507812 -8.035156 51.398438 -9.789062 C 51.722656 -10.113281 51.398438 -10.253906 51.167969 -10.34375 C 50.570312 -10.574219 50.199219 -10.207031 49.828125 -9.882812 C 48.582031 -8.683594 47.335938 -7.433594 46.089844 -6.234375 C 41.515625 -1.753906 36.113281 1.246094 29.878906 2.632812 C 29.140625 2.769531 28.355469 2.957031 27.523438 3.140625 C 27.800781 2.679688 28.171875 2.539062 28.492188 2.308594 C 30.292969 1.15625 32.003906 -0.09375 33.667969 -1.429688 C 43.457031 -9.144531 51.078125 -18.519531 55.417969 -30.292969 C 57.21875 -35.097656 58.695312 -39.992188 58.417969 -45.257812 C 58.234375 -48.722656 57.542969 -52.046875 55.09375 -54.726562 C 52.554688 -57.496094 49.460938 -59.25 45.765625 -59.898438 C 41.054688 -60.773438 36.621094 -59.621094 32.417969 -57.589844 C 23.96875 -53.433594 18.058594 -46.78125 13.902344 -38.421875 C 10.574219 -31.726562 9.929688 -24.753906 11.636719 -17.550781 C 12.929688 -12.097656 16.070312 -7.851562 21.152344 -5.21875 C 22.722656 -4.433594 24.335938 -4.019531 26.230469 -4.292969 C 25.675781 -4.757812 25.675781 -4.757812 25.167969 -4.804688 C 23.320312 -5.035156 21.660156 -5.679688 20.136719 -6.789062 C 17.550781 -8.683594 15.65625 -11.128906 14.453125 -14.085938 C 11.867188 -20.414062 11.824219 -26.878906 13.855469 -33.296875 C 16.164062 -40.730469 20.734375 -46.828125 26.738281 -51.722656 C 30.710938 -55 35.144531 -57.402344 40.222656 -58.417969 C 43.550781 -59.113281 46.828125 -59.019531 49.875 -57.355469 C 53.984375 -55.09375 55.601562 -51.355469 55.878906 -46.828125 C 56.15625 -42.070312 55.140625 -37.453125 53.570312 -33.019531 C 47.9375 -17.085938 37.082031 -5.449219 22.953125 3.324219 C 22.582031 3.601562 22.167969 3.648438 21.707031 3.695312 C 18.84375 3.785156 16.023438 3.464844 13.160156 3.371094 C 9.789062 3.324219 6.511719 3.511719 3.324219 4.757812 C 2.125 5.265625 1.0625 6.003906 0.371094 7.113281 C -0.324219 8.21875 -0.136719 9.191406 0.878906 9.976562 Z M 1.894531 8.082031 C 2.449219 7.019531 3.371094 6.371094 4.433594 5.863281 C 5.496094 5.402344 6.605469 5.078125 7.757812 4.894531 C 11.730469 4.15625 15.703125 4.710938 19.671875 4.941406 C 14.917969 7.296875 10.066406 9.234375 4.804688 9.835938 C 4.109375 9.929688 3.417969 9.929688 2.726562 9.835938 C 1.570312 9.652344 1.292969 9.097656 1.894531 8.082031 Z M 1.894531 8.082031 "/></g></g></g><g fill="#000000" fill-opacity="1"><g transform="translate(170.962837, 195.681215)"><g/></g></g><g fill="#000000" fill-opacity="1"><g transform="translate(189.435051, 195.681215)"><g><path d="M 3.234375 -1.476562 C 3.324219 -0.507812 3.464844 0.460938 3.925781 1.339844 C 5.496094 4.292969 8.636719 4.941406 11.269531 3.832031 C 16.578125 1.570312 26.554688 -7.15625 32.28125 -7.851562 C 32.234375 -8.035156 32.234375 -8.128906 32.1875 -8.175781 C 30.617188 -9.929688 16.441406 -0.183594 11.777344 2.078125 C 10.574219 2.679688 9.375 3.1875 7.988281 3.1875 C 7.296875 3.140625 6.835938 2.863281 6.558594 2.214844 C 6.28125 1.570312 6.140625 0.878906 6.140625 0.136719 C 6.097656 -1.523438 6.417969 -3.09375 7.066406 -4.664062 C 7.574219 -5.957031 8.359375 -7.113281 9.050781 -8.3125 C 9.558594 -9.28125 9.46875 -9.605469 8.496094 -10.066406 C 8.21875 -10.207031 7.941406 -10.390625 7.667969 -10.296875 C 7.15625 -10.113281 6.882812 -10.390625 6.511719 -10.621094 C 5.125 -11.40625 3.742188 -11.589844 2.355469 -10.714844 C -0.96875 -8.636719 -2.492188 -5.496094 -2.402344 -1.664062 C -2.402344 -0.371094 -0.921875 0.371094 0.277344 -0.183594 C 0.738281 -0.414062 1.15625 -0.738281 1.476562 -1.109375 C 1.984375 -1.570312 2.492188 -2.078125 3.046875 -2.632812 C 3.234375 -2.171875 3.1875 -1.800781 3.234375 -1.476562 Z M 0.648438 -2.03125 C 0.324219 -1.753906 -0.046875 -1.523438 -0.554688 -1.15625 C -0.554688 -2.171875 -0.371094 -2.910156 -0.09375 -3.554688 C 0.738281 -5.679688 1.941406 -7.480469 3.695312 -8.960938 C 4.019531 -9.234375 4.433594 -9.421875 4.804688 -9.652344 C 5.035156 -9.789062 5.355469 -9.835938 5.542969 -9.511719 C 5.726562 -9.234375 5.910156 -9.003906 5.679688 -8.636719 C 4.203125 -6.28125 2.769531 -3.878906 0.648438 -2.03125 Z M 0.648438 -2.03125 "/></g></g></g><g fill="#000000" fill-opacity="1"><g transform="translate(220.606915, 195.681215)"><g><path d="M 39.761719 -8.035156 C 39.667969 -7.988281 39.578125 -7.941406 39.484375 -7.851562 C 38.421875 -7.203125 37.359375 -6.558594 36.296875 -5.910156 C 34.035156 -4.527344 31.820312 -3.09375 29.371094 -2.03125 C 27.476562 -1.199219 25.539062 -0.691406 23.460938 -0.738281 C 22.121094 -0.738281 21.9375 -1.015625 22.214844 -2.261719 C 22.257812 -2.449219 22.304688 -2.632812 22.351562 -2.816406 C 22.492188 -3.371094 22.675781 -3.925781 22.722656 -4.480469 C 22.765625 -5.402344 22.398438 -6.140625 21.660156 -6.695312 C 20.921875 -7.203125 20.320312 -6.835938 19.671875 -6.511719 C 18.472656 -5.863281 17.363281 -5.035156 16.210938 -4.292969 C 16.023438 -4.203125 15.886719 -3.925781 15.515625 -4.109375 C 15.65625 -4.894531 16.210938 -5.449219 16.53125 -6.1875 C 17.457031 -8.175781 18.519531 -10.113281 19.8125 -11.960938 C 21.242188 -13.945312 22.582031 -15.933594 23.96875 -17.964844 C 24.660156 -19.027344 25.261719 -20.136719 25.585938 -21.429688 C 26.09375 -23.644531 24.058594 -25.816406 21.796875 -25.308594 C 19.8125 -24.84375 18.011719 -24.015625 16.347656 -22.859375 C 13.070312 -20.503906 10.296875 -17.550781 7.621094 -14.546875 C 5.773438 -12.421875 4.203125 -10.113281 2.632812 -7.804688 C 2.402344 -7.480469 2.214844 -7.113281 1.753906 -6.882812 C 1.753906 -7.480469 1.984375 -7.941406 2.171875 -8.40625 C 2.539062 -9.191406 2.863281 -9.976562 3.277344 -10.714844 C 3.554688 -11.175781 3.277344 -11.824219 2.726562 -12.144531 C 2.261719 -12.421875 1.941406 -12.238281 1.617188 -11.824219 C 1.246094 -11.3125 0.878906 -10.804688 0.601562 -10.207031 C -0.414062 -7.941406 -0.691406 -5.542969 -0.96875 -3.140625 C -1.0625 -2.449219 -0.738281 -1.941406 -0.277344 -1.523438 C 0.230469 -1.109375 0.507812 -1.15625 0.878906 -1.707031 C 1.523438 -2.679688 2.125 -3.695312 2.726562 -4.710938 C 5.957031 -9.976562 9.652344 -14.871094 14.5 -18.75 C 16.625 -20.414062 18.84375 -21.9375 21.382812 -22.859375 C 22.074219 -23.089844 22.722656 -23.367188 23.597656 -23.230469 C 23.550781 -22.582031 23.320312 -22.121094 23.089844 -21.613281 C 22.765625 -20.964844 22.351562 -20.320312 21.980469 -19.671875 C 20.503906 -17.039062 18.566406 -14.730469 16.902344 -12.238281 C 15.148438 -9.605469 13.714844 -6.835938 12.699219 -3.832031 C 12.515625 -3.324219 12.332031 -2.769531 12.375 -2.171875 C 12.421875 -1.429688 12.882812 -1.015625 13.484375 -0.691406 C 14.039062 -0.414062 14.316406 -0.921875 14.6875 -1.199219 C 16.070312 -2.355469 17.550781 -3.464844 19.164062 -4.292969 C 19.535156 -4.527344 19.949219 -4.804688 20.457031 -4.710938 C 20.414062 -3.972656 20.367188 -3.371094 20.320312 -2.726562 C 20.136719 -0.785156 22.121094 1.15625 24.246094 0.691406 C 26.738281 0.183594 29.046875 -0.738281 31.21875 -1.984375 C 33.203125 -3.09375 35.144531 -4.339844 37.082031 -5.496094 C 38.097656 -6.140625 39.070312 -6.789062 40.085938 -7.390625 C 40.269531 -7.527344 40.410156 -7.667969 40.222656 -7.941406 C 40.132812 -8.082031 39.945312 -8.128906 39.761719 -8.035156 Z M 39.761719 -8.035156 "/></g></g></g><g fill="#000000" fill-opacity="1"><g transform="translate(145.432635, 233.673736)"><g><path d="M 10.71875 -8.90625 C 10.414062 -8.882812 10.191406 -8.847656 10.046875 -8.796875 C 9.898438 -8.742188 9.800781 -8.644531 9.75 -8.5 C 9.695312 -8.351562 9.671875 -8.113281 9.671875 -7.78125 L 9.671875 -1.375 C 9.671875 -1.039062 9.695312 -0.800781 9.75 -0.65625 C 9.800781 -0.507812 9.898438 -0.410156 10.046875 -0.359375 C 10.191406 -0.304688 10.414062 -0.273438 10.71875 -0.265625 L 10.71875 0 C 10.320312 -0.0195312 9.773438 -0.03125 9.078125 -0.03125 C 8.335938 -0.03125 7.785156 -0.0195312 7.421875 0 L 7.421875 -0.265625 C 7.734375 -0.273438 7.957031 -0.304688 8.09375 -0.359375 C 8.238281 -0.410156 8.335938 -0.507812 8.390625 -0.65625 C 8.441406 -0.800781 8.46875 -1.039062 8.46875 -1.375 L 8.46875 -8.3125 L 5.359375 0.0625 L 5.15625 0.0625 L 1.890625 -8.328125 L 1.890625 -1.5 C 1.890625 -1.164062 1.914062 -0.914062 1.96875 -0.75 C 2.03125 -0.582031 2.140625 -0.460938 2.296875 -0.390625 C 2.460938 -0.316406 2.71875 -0.273438 3.0625 -0.265625 L 3.0625 0 C 2.75 -0.0195312 2.3125 -0.03125 1.75 -0.03125 C 1.226562 -0.03125 0.828125 -0.0195312 0.546875 0 L 0.546875 -0.265625 C 0.847656 -0.273438 1.070312 -0.316406 1.21875 -0.390625 C 1.363281 -0.460938 1.460938 -0.582031 1.515625 -0.75 C 1.566406 -0.925781 1.59375 -1.175781 1.59375 -1.5 L 1.59375 -7.78125 C 1.59375 -8.113281 1.566406 -8.351562 1.515625 -8.5 C 1.460938 -8.644531 1.363281 -8.742188 1.21875 -8.796875 C 1.082031 -8.847656 0.859375 -8.882812 0.546875 -8.90625 L 0.546875 -9.15625 C 0.828125 -9.132812 1.226562 -9.125 1.75 -9.125 C 2.195312 -9.125 2.5625 -9.132812 2.84375 -9.15625 L 5.6875 -1.671875 L 8.46875 -9.125 L 9.078125 -9.125 C 9.773438 -9.125 10.320312 -9.132812 10.71875 -9.15625 Z M 10.71875 -8.90625 "/></g></g></g><g fill="#000000" fill-opacity="1"><g transform="translate(159.017792, 233.673736)"><g><path d="M 3.84375 -8.90625 C 3.53125 -8.882812 3.300781 -8.847656 3.15625 -8.796875 C 3.019531 -8.742188 2.925781 -8.644531 2.875 -8.5 C 2.820312 -8.351562 2.796875 -8.113281 2.796875 -7.78125 L 2.796875 -1.375 C 2.796875 -1.039062 2.820312 -0.800781 2.875 -0.65625 C 2.925781 -0.507812 3.019531 -0.410156 3.15625 -0.359375 C 3.300781 -0.304688 3.53125 -0.273438 3.84375 -0.265625 L 3.84375 0 C 3.445312 -0.0195312 2.898438 -0.03125 2.203125 -0.03125 C 1.460938 -0.03125 0.910156 -0.0195312 0.546875 0 L 0.546875 -0.265625 C 0.859375 -0.273438 1.082031 -0.304688 1.21875 -0.359375 C 1.363281 -0.410156 1.460938 -0.507812 1.515625 -0.65625 C 1.566406 -0.800781 1.59375 -1.039062 1.59375 -1.375 L 1.59375 -7.78125 C 1.59375 -8.113281 1.566406 -8.351562 1.515625 -8.5 C 1.460938 -8.644531 1.363281 -8.742188 1.21875 -8.796875 C 1.082031 -8.847656 0.859375 -8.882812 0.546875 -8.90625 L 0.546875 -9.15625 C 0.910156 -9.132812 1.460938 -9.125 2.203125 -9.125 C 2.890625 -9.125 3.4375 -9.132812 3.84375 -9.15625 Z M 3.84375 -8.90625 "/></g></g></g><g fill="#000000" fill-opacity="1"><g transform="translate(165.720176, 233.673736)"><g><path d="M 7.328125 -1.09375 C 7.535156 -0.550781 7.835938 -0.273438 8.234375 -0.265625 L 8.234375 0 C 7.878906 -0.0195312 7.414062 -0.03125 6.84375 -0.03125 C 6.101562 -0.03125 5.550781 -0.0195312 5.1875 0 L 5.1875 -0.265625 C 5.507812 -0.273438 5.742188 -0.3125 5.890625 -0.375 C 6.035156 -0.445312 6.109375 -0.566406 6.109375 -0.734375 C 6.109375 -0.878906 6.054688 -1.082031 5.953125 -1.34375 L 5.15625 -3.46875 L 2.03125 -3.46875 L 1.5 -2.09375 C 1.320312 -1.625 1.234375 -1.269531 1.234375 -1.03125 C 1.234375 -0.769531 1.328125 -0.578125 1.515625 -0.453125 C 1.703125 -0.328125 1.988281 -0.265625 2.375 -0.265625 L 2.375 0 C 1.875 -0.0195312 1.375 -0.03125 0.875 -0.03125 C 0.488281 -0.03125 0.164062 -0.0195312 -0.09375 0 L -0.09375 -0.265625 C 0.34375 -0.359375 0.6875 -0.734375 0.9375 -1.390625 L 3.96875 -9.21875 L 4.171875 -9.21875 Z M 5.0625 -3.71875 L 3.609375 -7.59375 L 2.140625 -3.71875 Z M 5.0625 -3.71875 "/></g></g></g><g fill="#000000" fill-opacity="1"><g transform="translate(176.187379, 233.673736)"><g/></g></g><g fill="#000000" fill-opacity="1"><g transform="translate(181.725384, 233.673736)"><g><path d="M 3.84375 -8.90625 C 3.53125 -8.882812 3.300781 -8.847656 3.15625 -8.796875 C 3.019531 -8.742188 2.925781 -8.644531 2.875 -8.5 C 2.820312 -8.351562 2.796875 -8.113281 2.796875 -7.78125 L 2.796875 -1.375 C 2.796875 -1.039062 2.820312 -0.800781 2.875 -0.65625 C 2.925781 -0.507812 3.019531 -0.410156 3.15625 -0.359375 C 3.300781 -0.316406 3.53125 -0.296875 3.84375 -0.296875 L 4.78125 -0.296875 C 5.320312 -0.296875 5.734375 -0.367188 6.015625 -0.515625 C 6.296875 -0.671875 6.5 -0.914062 6.625 -1.25 C 6.75 -1.59375 6.84375 -2.082031 6.90625 -2.71875 L 7.203125 -2.71875 C 7.179688 -2.445312 7.171875 -2.09375 7.171875 -1.65625 C 7.171875 -1.164062 7.203125 -0.613281 7.265625 0 C 6.671875 -0.0195312 5.679688 -0.03125 4.296875 -0.03125 C 2.640625 -0.03125 1.390625 -0.0195312 0.546875 0 L 0.546875 -0.265625 C 0.859375 -0.273438 1.082031 -0.304688 1.21875 -0.359375 C 1.363281 -0.410156 1.460938 -0.507812 1.515625 -0.65625 C 1.566406 -0.800781 1.59375 -1.039062 1.59375 -1.375 L 1.59375 -7.78125 C 1.59375 -8.113281 1.566406 -8.351562 1.515625 -8.5 C 1.460938 -8.644531 1.363281 -8.742188 1.21875 -8.796875 C 1.082031 -8.847656 0.859375 -8.882812 0.546875 -8.90625 L 0.546875 -9.15625 C 0.910156 -9.132812 1.460938 -9.125 2.203125 -9.125 C 2.890625 -9.125 3.4375 -9.132812 3.84375 -9.15625 Z M 3.84375 -8.90625 "/></g></g></g><g fill="#000000" fill-opacity="1"><g transform="translate(191.64921, 233.673736)"><g><path d="M 7.171875 -1.65625 C 7.171875 -1.164062 7.203125 -0.613281 7.265625 0 C 6.671875 -0.0195312 5.679688 -0.03125 4.296875 -0.03125 C 2.640625 -0.03125 1.390625 -0.0195312 0.546875 0 L 0.546875 -0.265625 C 0.859375 -0.273438 1.082031 -0.304688 1.21875 -0.359375 C 1.363281 -0.410156 1.460938 -0.507812 1.515625 -0.65625 C 1.566406 -0.800781 1.59375 -1.039062 1.59375 -1.375 L 1.59375 -7.78125 C 1.59375 -8.113281 1.566406 -8.351562 1.515625 -8.5 C 1.460938 -8.644531 1.363281 -8.742188 1.21875 -8.796875 C 1.082031 -8.847656 0.859375 -8.882812 0.546875 -8.90625 L 0.546875 -9.15625 C 1.390625 -9.132812 2.640625 -9.125 4.296875 -9.125 C 5.566406 -9.125 6.46875 -9.132812 7 -9.15625 C 6.9375 -8.59375 6.90625 -8.085938 6.90625 -7.640625 C 6.90625 -7.296875 6.921875 -7.023438 6.953125 -6.828125 L 6.65625 -6.828125 C 6.59375 -7.390625 6.515625 -7.804688 6.421875 -8.078125 C 6.328125 -8.347656 6.164062 -8.546875 5.9375 -8.671875 C 5.71875 -8.796875 5.378906 -8.859375 4.921875 -8.859375 L 3.84375 -8.859375 C 3.53125 -8.859375 3.300781 -8.832031 3.15625 -8.78125 C 3.019531 -8.738281 2.925781 -8.644531 2.875 -8.5 C 2.820312 -8.351562 2.796875 -8.113281 2.796875 -7.78125 L 2.796875 -4.734375 L 3.640625 -4.734375 C 3.941406 -4.734375 4.175781 -4.800781 4.34375 -4.9375 C 4.507812 -5.082031 4.617188 -5.253906 4.671875 -5.453125 C 4.734375 -5.648438 4.78125 -5.894531 4.8125 -6.1875 L 4.859375 -6.4375 L 5.15625 -6.4375 C 5.125 -6.082031 5.109375 -5.679688 5.109375 -5.234375 L 5.109375 -4.609375 C 5.109375 -4.171875 5.132812 -3.554688 5.1875 -2.765625 L 4.890625 -2.765625 C 4.878906 -2.828125 4.851562 -3.035156 4.8125 -3.390625 C 4.769531 -3.753906 4.648438 -4.023438 4.453125 -4.203125 C 4.265625 -4.378906 3.992188 -4.46875 3.640625 -4.46875 L 2.796875 -4.46875 L 2.796875 -1.375 C 2.796875 -1.039062 2.820312 -0.800781 2.875 -0.65625 C 2.925781 -0.507812 3.019531 -0.410156 3.15625 -0.359375 C 3.300781 -0.316406 3.53125 -0.296875 3.84375 -0.296875 L 4.78125 -0.296875 C 5.320312 -0.296875 5.734375 -0.363281 6.015625 -0.5 C 6.296875 -0.644531 6.5 -0.875 6.625 -1.1875 C 6.75 -1.507812 6.84375 -1.976562 6.90625 -2.59375 L 7.203125 -2.59375 C 7.179688 -2.351562 7.171875 -2.039062 7.171875 -1.65625 Z M 7.171875 -1.65625 "/></g></g></g><g fill="#000000" fill-opacity="1"><g transform="translate(201.844731, 233.673736)"><g><path d="M 10.765625 -9.125 C 11.148438 -9.125 11.472656 -9.132812 11.734375 -9.15625 L 11.734375 -8.90625 C 11.253906 -8.789062 10.914062 -8.414062 10.71875 -7.78125 L 8.265625 0.0625 L 8.0625 0.0625 L 5.8125 -6.59375 L 3.75 0.0625 L 3.546875 0.0625 L 0.796875 -8.078125 C 0.617188 -8.609375 0.320312 -8.882812 -0.09375 -8.90625 L -0.09375 -9.15625 C 0.257812 -9.132812 0.722656 -9.125 1.296875 -9.125 C 1.910156 -9.125 2.375 -9.132812 2.6875 -9.15625 L 2.6875 -8.90625 C 2.457031 -8.882812 2.296875 -8.835938 2.203125 -8.765625 C 2.109375 -8.703125 2.0625 -8.597656 2.0625 -8.453125 C 2.0625 -8.304688 2.109375 -8.09375 2.203125 -7.8125 L 4.09375 -2.046875 L 5.671875 -7.046875 L 5.3125 -8.078125 C 5.144531 -8.609375 4.890625 -8.882812 4.546875 -8.90625 L 4.546875 -9.15625 C 4.859375 -9.132812 5.28125 -9.125 5.8125 -9.125 C 6.550781 -9.125 7.101562 -9.132812 7.46875 -9.15625 L 7.46875 -8.90625 C 7.132812 -8.882812 6.898438 -8.84375 6.765625 -8.78125 C 6.640625 -8.726562 6.578125 -8.613281 6.578125 -8.4375 C 6.578125 -8.28125 6.625 -8.070312 6.71875 -7.8125 L 8.578125 -2.0625 L 10.171875 -7.0625 C 10.304688 -7.488281 10.375 -7.835938 10.375 -8.109375 C 10.375 -8.390625 10.285156 -8.585938 10.109375 -8.703125 C 9.941406 -8.828125 9.664062 -8.894531 9.28125 -8.90625 L 9.28125 -9.15625 C 9.769531 -9.132812 10.265625 -9.125 10.765625 -9.125 Z M 10.765625 -9.125 "/></g></g></g><g fill="#000000" fill-opacity="1"><g transform="translate(215.869767, 233.673736)"><g><path d="M 3.84375 -8.90625 C 3.53125 -8.882812 3.300781 -8.847656 3.15625 -8.796875 C 3.019531 -8.742188 2.925781 -8.644531 2.875 -8.5 C 2.820312 -8.351562 2.796875 -8.113281 2.796875 -7.78125 L 2.796875 -1.375 C 2.796875 -1.039062 2.820312 -0.800781 2.875 -0.65625 C 2.925781 -0.507812 3.019531 -0.410156 3.15625 -0.359375 C 3.300781 -0.304688 3.53125 -0.273438 3.84375 -0.265625 L 3.84375 0 C 3.445312 -0.0195312 2.898438 -0.03125 2.203125 -0.03125 C 1.460938 -0.03125 0.910156 -0.0195312 0.546875 0 L 0.546875 -0.265625 C 0.859375 -0.273438 1.082031 -0.304688 1.21875 -0.359375 C 1.363281 -0.410156 1.460938 -0.507812 1.515625 -0.65625 C 1.566406 -0.800781 1.59375 -1.039062 1.59375 -1.375 L 1.59375 -7.78125 C 1.59375 -8.113281 1.566406 -8.351562 1.515625 -8.5 C 1.460938 -8.644531 1.363281 -8.742188 1.21875 -8.796875 C 1.082031 -8.847656 0.859375 -8.882812 0.546875 -8.90625 L 0.546875 -9.15625 C 0.910156 -9.132812 1.460938 -9.125 2.203125 -9.125 C 2.890625 -9.125 3.4375 -9.132812 3.84375 -9.15625 Z M 3.84375 -8.90625 "/></g></g></g><g fill="#000000" fill-opacity="1"><g transform="translate(222.572154, 233.673736)"><g><path d="M 3.3125 -9.296875 C 3.6875 -9.296875 3.984375 -9.253906 4.203125 -9.171875 C 4.429688 -9.097656 4.660156 -8.984375 4.890625 -8.828125 C 5.078125 -8.703125 5.222656 -8.640625 5.328125 -8.640625 C 5.410156 -8.640625 5.472656 -8.679688 5.515625 -8.765625 C 5.554688 -8.859375 5.585938 -9.007812 5.609375 -9.21875 L 5.90625 -9.21875 C 5.863281 -8.71875 5.84375 -7.835938 5.84375 -6.578125 L 5.546875 -6.578125 C 5.492188 -7.273438 5.289062 -7.863281 4.9375 -8.34375 C 4.59375 -8.820312 4.085938 -9.0625 3.421875 -9.0625 C 2.960938 -9.0625 2.582031 -8.921875 2.28125 -8.640625 C 1.988281 -8.359375 1.84375 -8 1.84375 -7.5625 C 1.84375 -7.226562 1.914062 -6.941406 2.0625 -6.703125 C 2.21875 -6.460938 2.410156 -6.253906 2.640625 -6.078125 C 2.878906 -5.910156 3.210938 -5.691406 3.640625 -5.421875 L 4.03125 -5.1875 C 4.570312 -4.851562 5 -4.554688 5.3125 -4.296875 C 5.625 -4.046875 5.875 -3.753906 6.0625 -3.421875 C 6.257812 -3.097656 6.359375 -2.71875 6.359375 -2.28125 C 6.359375 -1.488281 6.097656 -0.878906 5.578125 -0.453125 C 5.054688 -0.0234375 4.398438 0.1875 3.609375 0.1875 C 3.191406 0.1875 2.851562 0.140625 2.59375 0.046875 C 2.332031 -0.0351562 2.082031 -0.148438 1.84375 -0.296875 C 1.644531 -0.421875 1.492188 -0.484375 1.390625 -0.484375 C 1.316406 -0.484375 1.257812 -0.4375 1.21875 -0.34375 C 1.175781 -0.25 1.140625 -0.101562 1.109375 0.09375 L 0.8125 0.09375 C 0.84375 -0.382812 0.859375 -1.421875 0.859375 -3.015625 L 1.171875 -3.015625 C 1.222656 -2.140625 1.4375 -1.429688 1.8125 -0.890625 C 2.1875 -0.347656 2.753906 -0.078125 3.515625 -0.078125 C 3.984375 -0.078125 4.378906 -0.21875 4.703125 -0.5 C 5.035156 -0.789062 5.203125 -1.222656 5.203125 -1.796875 C 5.203125 -2.273438 5.039062 -2.679688 4.71875 -3.015625 C 4.394531 -3.359375 3.882812 -3.742188 3.1875 -4.171875 C 2.675781 -4.472656 2.257812 -4.742188 1.9375 -4.984375 C 1.625 -5.234375 1.367188 -5.523438 1.171875 -5.859375 C 0.972656 -6.203125 0.875 -6.601562 0.875 -7.0625 C 0.875 -7.789062 1.109375 -8.34375 1.578125 -8.71875 C 2.046875 -9.101562 2.625 -9.296875 3.3125 -9.296875 Z M 3.3125 -9.296875 "/></g></g></g></svg>